<?xml version="1.0" encoding="utf-8"?>
<!-- Generator: Adobe Illustrator 16.0.0, SVG Export Plug-In . SVG Version: 6.00 Build 0)  -->
<!DOCTYPE svg PUBLIC "-//W3C//DTD SVG 1.1//EN" "http://www.w3.org/Graphics/SVG/1.1/DTD/svg11.dtd">
<svg version="1.1" id="Icons" xmlns="http://www.w3.org/2000/svg" xmlns:xlink="http://www.w3.org/1999/xlink" x="0px" y="0px"
	 width="64px" height="64px" viewBox="0 0 64 64" enable-background="new 0 0 64 64" xml:space="preserve">
<path id="Facebook__x28_alt_x29_" fill="#FFFFFF" d="M64,10.667C64,5.062,58.939,0,53.334,0H10.667C5.061,0,0,5.062,0,10.667v42.666
	C0,58.938,5.061,64,10.667,64H32V39.822h-7.822V29.156H32V25c0-7.167,5.382-13.622,12-13.622h8.622v10.667H44
	c-0.943,0-2.044,1.146-2.044,2.861v4.25h10.667v10.667H41.956V64h11.378C58.939,64,64,58.938,64,53.333V10.667z"/>
</svg>
