<?xml version="1.0" encoding="utf-8"?>
<!-- Generator: Adobe Illustrator 16.0.0, SVG Export Plug-In . SVG Version: 6.00 Build 0)  -->
<!DOCTYPE svg PUBLIC "-//W3C//DTD SVG 1.1//EN" "http://www.w3.org/Graphics/SVG/1.1/DTD/svg11.dtd">
<svg version="1.1" id="Layer_1" xmlns="http://www.w3.org/2000/svg" xmlns:xlink="http://www.w3.org/1999/xlink" x="0px" y="0px"
	 width="149.828px" height="223px" viewBox="181.086 144.5 149.828 223" enable-background="new 181.086 144.5 149.828 223"
	 xml:space="preserve">
<path fill="#FFFFFF" d="M256,158.438c33.673,0,60.977,27.304,60.977,60.977c0,33.156-19.98,37.021-23.737,73.172
	c0,3.375-2.722,6.098-6.098,6.098h-62.283c-3.375,0-6.098-2.723-6.098-6.098h-0.014c-3.743-36.15-23.724-40.016-23.724-73.172
	C195.023,185.741,222.327,158.438,256,158.438 M286.488,304.781c3.375,0,6.098,2.723,6.098,6.098s-2.723,6.098-6.098,6.098h-60.977
	c-3.375,0-6.098-2.723-6.098-6.098s2.722-6.098,6.098-6.098H286.488 M286.488,323.074c3.375,0,6.098,2.723,6.098,6.098
	s-2.723,6.098-6.098,6.098h-60.977c-3.375,0-6.098-2.723-6.098-6.098s2.722-6.098,6.098-6.098H286.488 M280.391,341.367
	c0,6.737-5.458,12.195-12.195,12.195h-24.391c-6.737,0-12.195-5.458-12.195-12.195H280.391 M256,144.5
	c-41.309,0-74.914,33.605-74.914,74.914c0,20.743,6.778,32.652,12.74,43.174c5.063,8.901,9.446,16.618,11.011,30.965
	c0.149,3.185,1.062,6.18,2.545,8.806c-1.225,2.586-1.905,5.472-1.905,8.521c0,3.294,0.79,6.397,2.205,9.146
	c-1.416,2.749-2.205,5.853-2.205,9.146c0,8.589,5.431,15.925,13.04,18.77c2.913,11.242,13.148,19.559,25.289,19.559h24.391
	c12.141,0,22.376-8.316,25.289-19.559c7.608-2.845,13.039-10.181,13.039-18.77c0-3.294-0.803-6.397-2.219-9.146
	c1.416-2.749,2.219-5.853,2.219-9.146c0-3.049-0.681-5.935-1.905-8.507c1.483-2.641,2.382-5.648,2.531-8.833
	c1.579-14.332,5.948-22.036,11.012-30.951c5.975-10.508,12.753-22.431,12.753-43.174C330.914,178.105,297.309,144.5,256,144.5
	L256,144.5z"/>
</svg>
