<?xml version="1.0" encoding="utf-8"?>
<!-- Generator: Adobe Illustrator 16.0.0, SVG Export Plug-In . SVG Version: 6.00 Build 0)  -->
<!DOCTYPE svg PUBLIC "-//W3C//DTD SVG 1.1//EN" "http://www.w3.org/Graphics/SVG/1.1/DTD/svg11.dtd">
<svg version="1.1" id="Capa_1" xmlns="http://www.w3.org/2000/svg" xmlns:xlink="http://www.w3.org/1999/xlink" x="0px" y="0px"
	 width="16.002px" height="13px" viewBox="-0.001 0 16.002 13" enable-background="new -0.001 0 16.002 13" xml:space="preserve">
<path fill="#FFFFFF" d="M16.001,1.538c-0.589,0.261-1.221,0.438-1.885,0.517c0.678-0.406,1.197-1.05,1.443-1.815
	c-0.636,0.376-1.338,0.649-2.086,0.797C12.875,0.398,12.022,0,11.078,0C9.265,0,7.795,1.47,7.795,3.282
	c0,0.257,0.029,0.508,0.085,0.748C5.152,3.893,2.733,2.586,1.114,0.6C0.831,1.084,0.67,1.648,0.67,2.25
	c0,1.139,0.58,2.144,1.46,2.732C1.592,4.964,1.086,4.816,0.643,4.57v0.041c0,1.59,1.132,2.917,2.633,3.219
	C3.001,7.904,2.711,7.945,2.411,7.945c-0.212,0-0.417-0.021-0.618-0.061c0.418,1.305,1.63,2.254,3.066,2.28
	c-1.123,0.88-2.539,1.403-4.077,1.403c-0.265,0-0.526-0.016-0.783-0.045C1.452,12.456,3.177,13,5.031,13
	c6.038,0,9.34-5.002,9.34-9.34L14.36,3.235C15.004,2.774,15.562,2.196,16.001,1.538z"/>
</svg>
