<?xml version="1.0" encoding="utf-8"?>
<!-- Generator: Adobe Illustrator 16.0.0, SVG Export Plug-In . SVG Version: 6.00 Build 0)  -->
<!DOCTYPE svg PUBLIC "-//W3C//DTD SVG 1.1//EN" "http://www.w3.org/Graphics/SVG/1.1/DTD/svg11.dtd">
<svg version="1.1" id="Capa_1" xmlns="http://www.w3.org/2000/svg" xmlns:xlink="http://www.w3.org/1999/xlink" x="0px" y="0px"
	 width="64px" height="64px" viewBox="-0.001 0 64 64" enable-background="new -0.001 0 64 64" xml:space="preserve">
<path fill="#FFFFFF" d="M61.834,13.442c-2.215,0.981-4.589,1.647-7.088,1.944c2.548-1.527,4.501-3.949,5.428-6.823
	c-2.394,1.413-5.031,2.438-7.844,2.996c-2.25-2.403-5.454-3.9-9.007-3.9c-6.818,0-12.345,5.528-12.345,12.342
	c0,0.965,0.111,1.908,0.32,2.812C21.039,22.297,11.947,17.384,5.86,9.916c-1.065,1.818-1.671,3.939-1.671,6.203
	c0,4.283,2.181,8.062,5.49,10.273c-2.024-0.068-3.925-0.625-5.59-1.549v0.151c0,5.98,4.256,10.968,9.9,12.105
	c-1.034,0.279-2.126,0.433-3.252,0.433c-0.797,0-1.568-0.08-2.325-0.229c1.573,4.908,6.129,8.477,11.529,8.572
	c-4.223,3.308-9.547,5.272-15.329,5.272c-0.997,0-1.979-0.059-2.946-0.169c5.465,3.514,11.949,5.561,18.921,5.561
	c22.704,0,35.118-18.807,35.118-35.119l-0.04-1.6C58.083,18.09,60.181,15.916,61.834,13.442z"/>
</svg>
